<svg id="Layer_1" data-name="Layer 1" xmlns="http://www.w3.org/2000/svg" viewBox="0 0 287.95 168.79"><defs><style>.cls-1{fill:#520fab;}.cls-2{fill:#fee700;}</style></defs><path class="cls-1" d="M69.53,204.84V193.08c.35-.16.22-.48.25-.73a87.35,87.35,0,0,1,1.71-11.61,84.32,84.32,0,0,1,91.66-65.68,83.33,83.33,0,0,1,36.25,12.81,91.8,91.8,0,0,1,14.1,11.3c.49.52,1,1.05,1.48,1.56l29.07,29.12c-.19.2-.37.41-.57.6a41,41,0,0,0-8.61,49.13c.13.26.44.49.25.85-.47-.09-.68-.51-1-.81q-20.91-20.9-41.79-41.8c-.38-.38-.66-.95-1.36-.83a22.34,22.34,0,0,0-3-3.66c-10.3-11-23-15.6-37.83-13-22,3.88-36.46,24.4-33.16,46.61,3.7,24.94,29.52,40.64,53.48,32.54a42.93,42.93,0,0,0,14.93-8.85q9.33,9.29,18.64,18.59c3.16,3.16,6.29,6.34,9.43,9.51l-.46.38c-21.63,20.46-47.15,28-76.35,22.46-34.56-6.52-62.48-36.88-66.47-71.84A22,22,0,0,0,69.53,204.84Z" transform="translate(-69.53 -114.55)"/><path class="cls-2" d="M191,177c.7-.12,1,.45,1.36.83q20.9,20.9,41.79,41.8c.3.3.51.72,1,.81h0c0,.17.1.26.25.32l1.29,1.87c9.89,14.38,23.53,20.91,40.83,18.43,22.61-3.23,37.92-24.7,34.14-47.15a41,41,0,0,0-56.31-31,45.58,45.58,0,0,0-11.24,7L215,140.73c-.5-.51-1-1-1.48-1.56,1-.93,2-1.87,3-2.77,20.24-17.85,43.81-24.8,70.4-20.69,19.35,3,35.63,12.12,48.77,26.63a83,83,0,0,1,21.16,46.19,30,30,0,0,0,.67,5.27v10.32c-.35.15-.22.48-.23.73a84.36,84.36,0,0,1-93.42,78A82.64,82.64,0,0,1,228,270.3a92.21,92.21,0,0,1-14.5-11.56c-3.14-3.17-6.27-6.35-9.43-9.51q-9.31-9.31-18.64-18.59l.83-.87q16.35-17.1,10.67-40.06A41.39,41.39,0,0,0,191,177Z" transform="translate(-69.53 -114.55)"/><path class="cls-1" d="M235.09,220.42c.3,0,.26.15.25.32C235.19,220.68,235.08,220.59,235.09,220.42Z" transform="translate(-69.53 -114.55)"/></svg>